<svg viewBox="0 0 39 29" version="1.1" xmlns="http://www.w3.org/2000/svg" xmlns:xlink="http://www.w3.org/1999/xlink" xml:space="preserve" style="fill-rule:evenodd;clip-rule:evenodd;stroke-linecap:round;stroke-linejoin:round;stroke-miterlimit:1.41421;">
  <ellipse cx="38.167" cy="20.5281" rx="0.17794" ry="1.07451" style="fill:rgb(235,235,235);stroke-width:1px;stroke:black;"/>
  <ellipse cx="25.528" cy="8.72613" rx="3.72145" ry="2.02988" style="fill:black;stroke-width:0.45px;stroke:black;"/>
  <circle cx="14.4086" cy="14.4086" r="13.5425" style="fill:white;stroke-width:1px;stroke:black;"/>
  <path d="M10.4015,23.2094C10.4015,23.2094 8.34856,24.5751 7.95284,25.3942C7.65145,26.0181 7.91288,26.7682 8.53675,27.0696C9.16063,27.3709 9.91069,27.1095 10.2121,26.4856C10.6078,25.6665 10.4015,23.2094 10.4015,23.2094Z" style="fill:rgb(255,0,0);stroke-width:2px;stroke:rgb(255,0,0);"/>
  <rect x="25.0313" y="18.6081" width="12.9144" height="3.84014" style="fill:white;stroke-width:1px;stroke:black;"/>
  <path d="M26.2196,19.3397L26.2196,21.7166" style="fill:none;stroke-width:1px;stroke:black;"/>
  <path d="M34.0366,18.6275L34.0366,20.9897L31.3222,20.9897L31.3222,20.4528L30.6759,20.4528L30.6759,19.3791L31.3653,19.3791L31.3653,18.7349" style="fill:none;stroke-width:1px;stroke:black;"/>
  <g>
      <ellipse cx="21.6035" cy="9.98616" rx="0.475696" ry="1.43949" style="fill:black;stroke-width:0.3px;stroke:black;"/>
      <ellipse cx="21.6035" cy="18.8309" rx="0.475696" ry="1.43949" style="fill:black;stroke-width:0.3px;stroke:black;"/>
  </g>
  <path d="M36.8947,20.5281L37.4967,20.5281" style="fill:none;stroke-width:0.7px;stroke:black;"/>
  <ellipse cx="11.0624" cy="14.4086" rx="6.9" ry="9.1" style="fill:white;stroke-width:2.66px;stroke:rgb(255,0,0);"/>
  <g>
      <path d="M18.6621,9.88897L20.021,12.0416" style="fill:none;stroke-width:0.7px;stroke:black;"/>
      <path d="M18.6621,18.9281L20.021,16.7755" style="fill:none;stroke-width:0.7px;stroke:black;"/>
  </g>
</svg>
